<?xml version="1.0" encoding="UTF-8" standalone="no"?>
<!-- Uploaded to: SVG Repo, www.svgrepo.com, Generator: SVG Repo Mixer Tools -->

<svg
   fill="#000000"
   height="800px"
   width="800px"
   version="1.1"
   id="Capa_1"
   viewBox="0 0 487.5 487.5"
   xml:space="preserve"
   sodipodi:docname="manjarodocs_logo.svg"
   inkscape:version="1.3.2 (091e20ef0f, 2023-11-25, custom)"
   xmlns:inkscape="http://www.inkscape.org/namespaces/inkscape"
   xmlns:sodipodi="http://sodipodi.sourceforge.net/DTD/sodipodi-0.dtd"
   xmlns="http://www.w3.org/2000/svg"
   xmlns:svg="http://www.w3.org/2000/svg"><defs
   id="defs4">
	
<clipPath
   clipPathUnits="userSpaceOnUse"
   id="clipPath12"><rect
     style="display:inline;fill:#ffffff;fill-opacity:1;stroke:none;stroke-width:13.7669;stroke-dasharray:none"
     id="rect12"
     width="199.99968"
     height="199.99968"
     x="-222.41168"
     y="236.90016"
     ry="17.771257"
     mask="none" /></clipPath></defs><sodipodi:namedview
   id="namedview4"
   pagecolor="#ffffff"
   bordercolor="#999999"
   borderopacity="1"
   inkscape:showpageshadow="0"
   inkscape:pageopacity="0"
   inkscape:pagecheckerboard="0"
   inkscape:deskcolor="#d1d1d1"
   inkscape:zoom="0.738125"
   inkscape:cx="-55.546147"
   inkscape:cy="485.69009"
   inkscape:window-width="2560"
   inkscape:window-height="1367"
   inkscape:window-x="0"
   inkscape:window-y="0"
   inkscape:window-maximized="1"
   inkscape:current-layer="Capa_1" />
<g
   id="g3">
		<path
   d="M 437,12.3 C 437,5.5 431.5,0 424.7,0 H 126.3 C 84.4,0 50.4,34.1 50.4,75.9 v 335.7 c 0,41.9 34.1,75.9 75.9,75.9 h 298.5 c 6.8,0 12.3,-5.5 12.3,-12.3 V 139.6 c 0,-6.8 -5.5,-12.3 -12.3,-12.3 H 126.3 C 98,127.3 74.9,104.2 74.9,75.9 74.9,47.6 98,24.5 126.3,24.5 H 424.8 C 431.5,24.5 437,19 437,12.3 Z M 126.3,151.8 H 412.5 V 463 H 126.3 C 98,463 74.9,439.9 74.9,411.6 V 131.7 c 13.5,12.5 31.6,20.1 51.4,20.1 z"
   id="path1"
   inkscape:label="Book cover" />
		<path
   d="m 130.5,64.8 c -6.8,0 -12.3,5.5 -12.3,12.3 0,6.8 5.5,12.3 12.3,12.3 h 280.1 c 6.8,0 12.3,-5.5 12.3,-12.3 0,-6.8 -5.5,-12.3 -12.3,-12.3 z"
   id="path2"
   inkscape:label="Book pages" />
		
	</g>
<g
   id="g5967"
   style="fill:#35bf5c;fill-opacity:1"
   transform="matrix(0.91211942,0,0,0.98435703,371.17116,-25.202425)"
   mask="none"
   clip-path="url(#clipPath12)"><g
     id="g4446"
     transform="matrix(1.2196132,0,0,1.0000088,-467.56616,-225.96506)"
     style="fill:#35bf5c;fill-opacity:1" /><path
     id="rect4149-7"
     style="opacity:1;fill-rule:evenodd;stroke-width:7.074;stroke-linecap:round;stroke-dasharray:21.222, 21.222"
     transform="matrix(1.2196132,0,0,1.0000088,-467.56616,-225.96506)"
     d="m 317.00177,462.86115 h 47.99467 v 199.99824 h -47.99467 z" /><path
     id="rect4149-0-6"
     style="opacity:1;fill-rule:evenodd;stroke-width:7.074;stroke-linecap:round;stroke-dasharray:21.222, 21.222"
     transform="matrix(1.2196132,0,0,1.0000088,-467.56616,-225.96506)"
     d="m 259.00415,533.59174 h 47.99468 v 129.26767 h -47.99468 z" /><path
     inkscape:connector-curvature="0"
     id="path5961"
     d="m -222.41168,236.90016 h 129.26633 v 58.53494 h -70.93002 v 141.46508 h -58.33631 z"
     style="fill:#35bf5c;fill-opacity:1;fill-rule:evenodd;stroke:none;stroke-width:0.9375px;stroke-linecap:butt;stroke-linejoin:miter;stroke-opacity:1" /></g></svg>
